<svg width="19" height="4" viewBox="0 0 19 4" fill="none" xmlns="http://www.w3.org/2000/svg">
<path d="M-12.6045 1.27694L-19 3.9698H37.5L34.8955 2.66266L31.6045 1.27694C29.6192 0.441052 27.3808 0.441052 25.3955 1.27694L22.1045 2.66266C20.1192 3.49855 17.8808 3.49855 15.8955 2.66266L12.6045 1.27694C10.6192 0.441052 8.38078 0.441052 6.39555 1.27694L3.10446 2.66266C1.11922 3.49855 -1.11922 3.49855 -3.10445 2.66266L-6.39554 1.27694C-8.38078 0.441052 -10.6192 0.441052 -12.6045 1.27694Z" fill="currentColor"/>
<path d="M25.7836 1.58773L22.4925 2.97346C20.3832 3.86159 18.0049 3.86159 15.8955 2.97346L12.6045 1.58774C10.7433 0.804089 8.64476 0.804088 6.7836 1.58773L3.49251 2.97346C1.3832 3.86159 -0.99514 3.86159 -3.10445 2.97346L-6.39554 1.58774C-8.2567 0.804089 -10.3552 0.804088 -12.2164 1.58773L-18.6119 4.2806L-19 3.35896L-12.6045 0.666099C-10.4951 -0.222033 -8.1168 -0.222033 -6.00749 0.6661L-2.7164 2.05182C-0.855238 2.83547 1.2433 2.83547 3.10446 2.05182L6.39555 0.666099C8.50486 -0.222033 10.8832 -0.222033 12.9925 0.6661L16.2836 2.05182C18.1448 2.83547 20.2433 2.83547 22.1045 2.05182L25.3955 0.666099L25.7836 1.58773Z" fill="currentColor"/>
</svg>
