          <svg
            width="20"
            height="20"
            viewBox="0 0 20 20"
            fill="none"
            xmlns="http://www.w3.org/2000/svg"
          >
            <path
              fill-rule="evenodd"
              clip-rule="evenodd"
              d="M9.99984 18.3334C14.6022 18.3334 18.3332 14.6025 18.3332 10.0001C18.3332 5.39771 14.6022 1.66675 9.99984 1.66675C5.39746 1.66675 1.6665 5.39771 1.6665 10.0001C1.6665 14.6025 5.39746 18.3334 9.99984 18.3334ZM10.6248 6.45842C10.6248 6.11324 10.345 5.83342 9.99984 5.83342C9.65466 5.83342 9.37484 6.11324 9.37484 6.45842V10.0001C9.37484 10.1658 9.44069 10.3248 9.5579 10.442L11.8496 12.7337C12.0936 12.9778 12.4894 12.9778 12.7334 12.7337C12.9775 12.4896 12.9775 12.0939 12.7334 11.8498L10.6248 9.7412V6.45842Z"
              fill="currentColor"
            />
          </svg>