        <svg
          width="20"
          height="20"
          viewBox="0 0 16 16"
          fill="none"
          xmlns="http://www.w3.org/2000/svg"
        >
          <path
            fill-rule="evenodd"
            clip-rule="evenodd"
            d="M6.75259 1.30805C7.52477 0.863462 8.47523 0.863461 9.24741 1.30805L12.7474 3.3232C13.5224 3.76939 14 4.59553 14 5.48976V11.5001C14 12.8808 12.8807 14.0001 11.5 14.0001H4.5C3.11929 14.0001 2 12.8808 2 11.5001V5.48976C2 4.59553 2.47763 3.76939 3.25259 3.3232L6.75259 1.30805ZM5.83333 8.16679C5.83333 6.97017 6.80338 6.00012 8 6.00012C9.19662 6.00012 10.1667 6.97017 10.1667 8.16679C10.1667 9.36341 9.19662 10.3335 8 10.3335C6.80338 10.3335 5.83333 9.36341 5.83333 8.16679Z"
            fill="currentColor"
          />
        </svg>