          <svg
            width="20"
            height="20"
            viewBox="0 0 16 16"
            fill="none"
            xmlns="http://www.w3.org/2000/svg"
          >
            <path
              fill-rule="evenodd"
              clip-rule="evenodd"
              d="M5.83317 2C4.45246 2 3.33317 3.11929 3.33317 4.5V4.66667H3.1665C1.78579 4.66667 0.666504 5.78595 0.666504 7.16667V11.5C0.666504 12.8807 1.78579 14 3.1665 14H10.1665C11.5472 14 12.6665 12.8807 12.6665 11.5V11.3333H12.8332C14.2139 11.3333 15.3332 10.214 15.3332 8.83333V5.83333C15.3332 4.45262 14.2139 3.33333 12.8332 3.33333H9.88546C9.66444 3.33333 9.45248 3.24554 9.2962 3.08926L8.74391 2.53697C8.4001 2.19315 7.93378 2 7.44755 2H5.83317ZM12.6665 10.3333H12.8332C13.6616 10.3333 14.3332 9.66176 14.3332 8.83333V5.83333C14.3332 5.00491 13.6616 4.33333 12.8332 4.33333H9.88546C9.39922 4.33333 8.93291 4.14018 8.58909 3.79636L8.03681 3.24408C7.88053 3.0878 7.66857 3 7.44755 3H5.83317C5.00474 3 4.33317 3.67157 4.33317 4.5V4.66667H4.78089C5.26712 4.66667 5.73343 4.85982 6.07725 5.20364L6.62953 5.75592C6.78581 5.9122 6.99777 6 7.21879 6H10.1665C11.5472 6 12.6665 7.11929 12.6665 8.5V10.3333Z"
              fill="currentColor"
            />
          </svg>