<svg
width="136"
height="36"
viewBox="0 0 136 36"
fill="none"
xmlns="http://www.w3.org/2000/svg"
>
<rect width="36" height="36" rx="10.8" fill="#0F86F5" />
<path
  fill-rule="evenodd"
  clip-rule="evenodd"
  d="M13.9474 9.0086C16.1927 9.12001 17.9311 10.7083 19.5348 12.2637C21.1589 13.8388 22.87 15.5354 22.991 17.7798C23.1168 20.1126 21.9054 22.3353 20.1631 23.9162C18.4895 25.4347 16.2196 25.9224 13.9474 25.9856C11.5915 26.0511 8.9946 25.9588 7.37121 24.272C5.7702 22.6085 5.97754 20.0733 6.04992 17.7798C6.11913 15.5868 6.29214 13.3197 7.76861 11.6799C9.32149 9.95518 11.613 8.89278 13.9474 9.0086Z"
  fill="#4AA4F8"
/>
<path
  fill-rule="evenodd"
  clip-rule="evenodd"
  d="M15.6476 9.0086C17.8929 9.12001 19.6313 10.7083 21.235 12.2637C22.8591 13.8388 24.5702 15.5354 24.6912 17.7798C24.817 20.1126 23.6056 22.3353 21.8633 23.9162C20.1897 25.4347 17.9198 25.9224 15.6476 25.9856C13.2917 26.0511 10.6948 25.9588 9.0714 24.272C7.4704 22.6085 7.67773 20.0733 7.75011 17.7798C7.81932 15.5868 7.99233 13.3197 9.4688 11.6799C11.0217 9.95518 13.3131 8.89278 15.6476 9.0086Z"
  fill="#75BAFA"
/>
<path
  fill-rule="evenodd"
  clip-rule="evenodd"
  d="M18.1974 9.0086C20.4427 9.12001 22.1811 10.7083 23.7848 12.2637C25.4089 13.8388 27.12 15.5354 27.241 17.7798C27.3668 20.1126 26.1554 22.3353 24.4131 23.9162C22.7395 25.4347 20.4696 25.9224 18.1974 25.9856C15.8415 26.0511 13.2446 25.9588 11.6212 24.272C10.0202 22.6085 10.2275 20.0733 10.2999 17.7798C10.3691 15.5868 10.5421 13.3197 12.0186 11.6799C13.5715 9.95518 15.863 8.89278 18.1974 9.0086Z"
  fill="#C4E1FD"
/>
<path
  fill-rule="evenodd"
  clip-rule="evenodd"
  d="M20.7472 9.0086C22.9925 9.12001 24.7309 10.7083 26.3346 12.2637C27.9587 13.8388 29.6698 15.5354 29.7908 17.7798C29.9166 20.1126 28.7052 22.3353 26.9629 23.9162C25.2893 25.4347 23.0194 25.9224 20.7472 25.9856C18.3913 26.0511 15.7944 25.9588 14.171 24.272C12.57 22.6085 12.7773 20.0733 12.8497 17.7798C12.9189 15.5868 13.0919 13.3197 14.5684 11.6799C16.1213 9.95518 18.4128 8.89278 20.7472 9.0086Z"
  fill="white"
/>
<path
  d="M52.7983 26.2461C49.0146 26.2461 46.7485 24.2876 46.7485 21.0166H49.4043C49.4248 22.8623 50.6963 23.9595 52.8188 23.9595C54.7261 23.9595 55.9873 23.0981 55.9873 21.7549C55.9873 20.6782 55.1875 20.0527 53.147 19.5811L51.5063 19.2119C48.4507 18.5146 47.0459 17.1714 47.0459 15.0283C47.0459 12.3008 49.2915 10.4756 52.665 10.4756C56.0796 10.4756 58.2021 12.3213 58.2944 15.3564H55.7207C55.6079 13.7466 54.439 12.7725 52.6548 12.7725C50.9629 12.7725 49.7632 13.644 49.7632 14.895C49.7632 15.9204 50.5527 16.4946 52.542 16.9561L54.0903 17.3149C57.2588 18.0225 58.6841 19.3452 58.6841 21.5908C58.6841 24.4414 56.418 26.2461 52.7983 26.2461ZM63.165 19.8784V26H60.5811V15.1719H63.124V16.833C63.8623 15.6128 64.9595 14.9565 66.4463 14.9565C68.7124 14.9565 70.312 16.4536 70.312 19.2324V26H67.7178V19.6426C67.7178 18.0532 66.918 17.2227 65.5337 17.2227C64.1802 17.2227 63.165 18.0327 63.165 19.8784ZM77.459 26.2461C74.27 26.2461 72.1167 23.9595 72.1167 20.5962C72.1167 17.2329 74.27 14.9258 77.459 14.9258C80.6479 14.9258 82.8013 17.2329 82.8013 20.5962C82.8013 23.9595 80.6479 26.2461 77.459 26.2461ZM77.459 24.0825C79.1201 24.0825 80.1763 22.7495 80.1763 20.5962C80.1763 18.4326 79.1099 17.0894 77.459 17.0894C75.7979 17.0894 74.7314 18.4224 74.7314 20.5962C74.7314 22.7598 75.7876 24.0825 77.459 24.0825ZM86.6465 26L83.3037 15.1719H86.021L87.1387 19.2837C87.4771 20.5757 87.7847 21.96 88.1128 23.3032C88.4512 21.96 88.7793 20.5757 89.1382 19.2837L90.2866 15.1719H92.6758L93.814 19.2837C94.1626 20.5654 94.4907 21.9395 94.8291 23.2827C95.1367 21.9395 95.4546 20.5654 95.793 19.2837L96.9106 15.1719H99.6587L96.3057 26H93.6191L92.3066 21.4883C92.0195 20.4834 91.7529 19.4272 91.4761 18.3711C91.2095 19.4272 90.9429 20.4834 90.6455 21.4883L89.3125 26H86.6465ZM106.847 26.2153C105.432 26.2153 104.242 25.6001 103.565 24.3491H103.545V26H101.002V10.7217H103.586V16.71H103.606C104.304 15.5205 105.452 14.9565 106.857 14.9565C109.646 14.9565 111.533 17.2432 111.533 20.5757C111.533 23.9492 109.677 26.2153 106.847 26.2153ZM106.242 24.0518C107.841 24.0518 108.918 22.8213 108.918 20.5757C108.918 18.3403 107.841 17.0996 106.242 17.0996C104.55 17.0996 103.442 18.4736 103.442 20.5757C103.442 22.688 104.55 24.0518 106.242 24.0518ZM117.511 26.2153C114.681 26.2153 112.825 23.9492 112.825 20.5757C112.825 17.2432 114.711 14.9565 117.49 14.9565C118.895 14.9565 120.105 15.5308 120.771 16.6792H120.812V15.1719H123.345V26H120.812V24.3696H120.782C120.105 25.6001 118.926 26.2153 117.511 26.2153ZM118.116 24.0518C119.808 24.0518 120.915 22.688 120.915 20.5757C120.915 18.4736 119.808 17.0996 118.116 17.0996C116.516 17.0996 115.439 18.3403 115.439 20.5757C115.439 22.8213 116.516 24.0518 118.116 24.0518ZM128.903 26C126.596 26 125.652 25.2207 125.652 23.2314V10.7217H128.236V22.9751C128.236 23.7339 128.472 23.9595 129.221 23.9595H129.651V26H128.903ZM134.337 26C132.03 26 131.087 25.2207 131.087 23.2314V10.7217H133.671V22.9751C133.671 23.7339 133.907 23.9595 134.655 23.9595H135.086V26H134.337Z"
  fill="#0A3A5C"
/>
</svg>